# xmcd CD database file
#
# Track frame offsets:
#	150
#	22915
#	53802
#
# Disc length: 1079 seconds
#
# Revision: 0
# Processed by: cddbd v1.5.1PL0 Copyright (c) Steve Scherf et al.
# Submitted via: CDex 1.51
#
DISCID=19043503
DTITLE=COMES THE HITMAN - 明日は今日と同じ未来
DYEAR=2004
DGENRE=J-pop
TTITLE0=明日は今日と同じ未来
TTITLE1=GOLDEN 8
TTITLE2=明日は今日と同じ未来(Video clip)
EXTD=YEAR: 2004
EXTT0=
EXTT1=
EXTT2=
PLAYORDER=
